<?xml version="1.0" standalone="no"?>
<!DOCTYPE svg PUBLIC "-//W3C//DTD SVG 20010904//EN"
 "http://www.w3.org/TR/2001/REC-SVG-20010904/DTD/svg10.dtd">
<svg version="1.0" xmlns="http://www.w3.org/2000/svg"
 width="300.000000pt" height="132.000000pt" viewBox="0 0 300.000000 132.000000"
 preserveAspectRatio="xMidYMid meet">

<g transform="translate(0.000000,132.000000) scale(0.100000,-0.100000)"
fill="#000000" stroke="none">
<path d="M1172 978 c-21 -21 -14 -57 13 -70 22 -10 29 -9 47 10 19 18 20 25
10 47 -13 27 -49 34 -70 13z m53 -33 c0 -30 -39 -27 -43 3 -3 20 0 23 20 20
15 -2 23 -10 23 -23z"/>
<path d="M1312 939 c-40 -47 -78 -67 -197 -103 -49 -15 -108 -40 -130 -55 -46
-31 -88 -89 -106 -146 -14 -46 -29 -67 -29 -42 0 32 -49 115 -82 139 -49 35
-132 31 -290 -12 -71 -19 -128 -38 -128 -42 0 -15 57 -7 159 22 63 18 127 30
162 30 53 0 63 -3 94 -32 19 -18 42 -51 50 -73 15 -39 15 -39 -2 -15 -72 102
-115 109 -327 46 -48 -14 -99 -26 -112 -26 -15 0 -24 -6 -24 -15 0 -20 36 -14
174 26 155 45 206 39 257 -32 l22 -31 -40 26 c-61 41 -94 42 -208 6 -55 -17
-124 -34 -152 -37 -35 -4 -53 -10 -53 -19 0 -12 83 -14 508 -12 503 3 582 9
440 34 -35 6 -102 23 -150 38 -99 32 -134 30 -192 -9 -31 -21 -35 -22 -27 -6
6 10 24 31 42 45 41 35 100 34 222 -4 104 -31 166 -41 166 -25 -1 6 -24 15
-52 22 -29 6 -92 23 -141 37 -48 14 -101 26 -117 26 -49 0 -96 -26 -128 -71
-38 -51 -39 -45 -5 26 38 81 90 120 209 157 119 36 175 66 211 114 39 50 17
63 -24 13z m-579 -346 l32 -18 -40 -2 c-102 -6 -203 -8 -199 -3 13 13 103 39
137 39 21 1 52 -7 70 -16z m398 0 c30 -9 57 -19 61 -22 4 -3 -49 -6 -118 -6
l-125 0 26 23 c32 27 81 29 156 5z"/>
<path d="M1882 935 c30 -45 68 -48 97 -6 26 35 26 41 3 41 -9 0 -23 -9 -30
-21 l-13 -21 -23 21 c-12 12 -30 21 -39 21 -15 0 -14 -4 5 -35z"/>
<path d="M1540 873 c0 -5 23 -81 52 -170 64 -203 73 -208 117 -65 17 53 42
130 55 170 l25 73 -26 -3 c-25 -3 -29 -11 -62 -125 -19 -68 -38 -123 -41 -123
-3 0 -21 56 -40 125 -31 113 -37 125 -57 125 -13 0 -23 -3 -23 -7z"/>
<path d="M1849 851 c-63 -64 -15 -161 81 -161 27 0 70 -29 70 -48 0 -4 -7 -18
-16 -30 -18 -26 -79 -30 -123 -7 -26 13 -30 13 -45 -3 -14 -17 -13 -19 17 -37
22 -14 51 -20 95 -20 58 0 66 3 88 28 17 20 24 40 24 68 0 52 -31 84 -91 94
-24 4 -52 11 -61 17 -27 13 -22 55 7 74 23 15 29 15 70 1 43 -13 46 -13 55 4
6 10 10 20 10 22 0 11 -66 27 -107 27 -36 0 -50 -6 -74 -29z"/>
<path d="M2102 713 l3 -168 103 -3 102 -3 0 26 c0 25 -1 25 -80 25 l-80 0 0
50 0 50 70 0 c63 0 70 2 70 20 0 18 -7 20 -70 20 l-70 0 0 55 0 55 80 0 c73 0
80 2 80 20 0 19 -7 20 -105 20 l-105 0 2 -167z"/>
<path d="M2370 711 c0 -164 1 -171 20 -171 19 0 20 7 20 107 0 64 4 103 9 97
5 -5 22 -40 38 -79 43 -101 60 -100 104 6 l34 83 3 -107 c3 -106 3 -107 27
-107 l25 0 0 170 0 170 -23 0 c-20 0 -29 -11 -52 -67 -16 -38 -37 -88 -47
-113 l-19 -45 -48 110 c-37 88 -51 111 -69 113 -22 3 -22 3 -22 -167z"/>
<path d="M1284 836 c-12 -31 0 -61 27 -64 31 -4 52 18 47 50 -2 18 -10 24 -36
26 -21 2 -34 -2 -38 -12z m56 -12 c11 -12 10 -18 -3 -32 -16 -15 -18 -15 -34
0 -13 14 -14 20 -3 32 7 9 16 16 20 16 4 0 13 -7 20 -16z"/>
<path d="M733 433 c-3 -10 -11 -32 -18 -48 -12 -31 -12 -31 20 -31 l32 0 -14
34 c-8 19 -12 41 -9 48 3 8 3 14 0 14 -2 0 -7 -8 -11 -17z m4 -55 c-3 -8 -6
-5 -6 6 -1 11 2 17 5 13 3 -3 4 -12 1 -19z"/>
<path d="M1526 425 c-27 -41 -14 -91 20 -78 16 6 20 73 4 73 -5 0 -7 7 -4 15
9 23 -2 18 -20 -10z m24 -40 c0 -16 -6 -25 -15 -25 -9 0 -15 9 -15 25 0 16 6
25 15 25 9 0 15 -9 15 -25z"/>
<path d="M2248 438 c9 -9 15 -9 24 0 9 9 7 12 -12 12 -19 0 -21 -3 -12 -12z"/>
<path d="M822 420 c-14 -23 -8 -40 14 -40 8 0 14 -4 14 -10 0 -5 -10 -10 -22
-10 -21 -1 -22 -1 -4 -11 14 -9 22 -8 33 4 17 17 10 37 -13 37 -8 0 -14 5 -14
10 0 6 7 10 15 10 9 0 12 6 9 15 -8 20 -17 19 -32 -5z"/>
<path d="M425 414 c4 -10 10 -30 13 -43 5 -22 5 -22 18 9 18 41 17 50 -1 26
-13 -17 -15 -17 -15 -4 0 9 -5 20 -12 24 -8 5 -9 2 -3 -12z"/>
<path d="M503 423 c-20 -7 -15 -29 10 -46 l22 -16 -24 0 c-17 -1 -22 -4 -15
-11 14 -14 44 -2 44 17 0 8 -9 17 -20 20 -27 7 -25 21 3 25 16 2 18 5 7 9 -8
3 -21 4 -27 2z"/>
<path d="M573 423 c-7 -3 -13 -20 -13 -38 0 -33 13 -46 38 -38 6 3 12 20 12
38 0 33 -13 46 -37 38z m27 -38 c0 -16 -6 -25 -15 -25 -9 0 -15 9 -15 25 0 16
6 25 15 25 9 0 15 -9 15 -25z"/>
<path d="M667 413 c-11 -11 -17 -13 -17 -5 0 7 -4 12 -10 12 -5 0 -10 -16 -10
-35 0 -19 5 -35 10 -35 6 0 10 8 10 18 0 14 4 12 20 -8 21 -27 27 -21 10 11
-8 13 -7 25 0 39 13 25 10 25 -13 3z"/>
<path d="M919 409 c-12 -23 -12 -23 -20 -4 -5 15 -7 9 -7 -20 0 -22 2 -32 5
-22 6 22 19 22 27 1 4 -9 9 -14 13 -11 3 4 0 13 -7 22 -10 12 -10 18 0 30 7 9
10 18 7 21 -3 3 -11 -5 -18 -17z"/>
<path d="M972 418 c-16 -16 -15 -53 2 -67 11 -9 18 -8 30 4 20 21 20 39 0 59
-19 19 -17 19 -32 4z m28 -33 c0 -16 -6 -25 -15 -25 -9 0 -15 9 -15 25 0 16 6
25 15 25 9 0 15 -9 15 -25z"/>
<path d="M363 385 c13 -43 22 -44 36 -4 13 39 14 42 1 34 -5 -3 -10 -16 -11
-28 -1 -20 -2 -19 -12 6 -16 39 -27 33 -14 -8z"/>
<path d="M1042 383 c-2 -37 1 -43 18 -43 11 0 20 5 20 10 0 6 -6 10 -14 10 -9
0 -16 13 -19 33 -3 28 -4 26 -5 -10z"/>
<path d="M1110 384 c-7 -19 -9 -38 -6 -41 3 -4 6 -1 6 5 0 7 9 12 20 12 11 0
20 -5 20 -12 0 -6 3 -9 6 -5 8 8 -15 77 -26 77 -5 0 -14 -16 -20 -36z m30 -4
c0 -5 -4 -10 -10 -10 -5 0 -10 5 -10 10 0 6 5 10 10 10 6 0 10 -4 10 -10z"/>
<path d="M1212 383 c2 -31 7 -39 26 -41 12 -2 22 1 22 7 0 6 -9 11 -20 11 -27
0 -25 18 3 23 l22 4 -22 2 c-13 0 -23 5 -23 10 0 5 10 12 23 14 18 4 17 4 -6
6 -27 1 -28 -1 -25 -36z"/>
<path d="M1282 380 c-1 -38 1 -41 9 -21 l9 23 21 -23 20 -24 -15 31 c-12 24
-12 34 -3 45 7 7 2 5 -10 -5 -20 -17 -21 -17 -26 1 -3 10 -5 -2 -5 -27z"/>
<path d="M1357 414 c-12 -13 -8 -51 8 -64 21 -18 47 5 43 39 -3 26 -35 41 -51
25z m40 -20 c8 -21 -13 -42 -28 -27 -13 13 -5 43 11 43 6 0 13 -7 17 -16z"/>
<path d="M1431 378 c1 -39 2 -40 8 -13 7 30 7 30 19 8 19 -34 32 -28 31 15 -1
36 -1 37 -8 7 l-8 -30 -13 28 c-19 39 -30 33 -29 -15z"/>
<path d="M1591 385 c1 -40 1 -40 11 -12 7 21 7 32 -1 40 -8 8 -11 0 -10 -28z"/>
<path d="M1625 394 c-9 -14 -14 -29 -10 -32 3 -4 10 0 15 7 6 11 9 8 13 -10 3
-15 5 -8 6 19 0 23 -1 42 -3 42 -2 0 -11 -12 -21 -26z"/>
<path d="M1683 385 c0 -22 2 -30 4 -17 2 12 2 30 0 40 -3 9 -5 -1 -4 -23z"/>
<path d="M1712 383 c2 -31 7 -39 26 -41 12 -2 22 1 22 7 0 6 -9 11 -20 11 -27
0 -25 18 3 23 l22 4 -22 2 c-13 0 -23 5 -23 10 0 5 10 12 23 14 18 4 17 4 -6
6 -27 1 -28 -1 -25 -36z"/>
<path d="M1820 394 c-14 -35 -12 -44 5 -38 8 4 22 1 30 -6 19 -16 19 -8 1 35
-18 42 -23 43 -36 9z m17 -16 c-3 -8 -6 -5 -6 6 -1 11 2 17 5 13 3 -3 4 -12 1
-19z"/>
<path d="M1921 380 c1 -37 2 -41 9 -20 4 14 8 19 9 13 1 -14 21 -18 21 -5 0 4
-9 18 -20 32 l-20 25 1 -45z"/>
<path d="M1964 407 c-2 -7 0 -24 5 -38 9 -22 10 -21 10 14 1 37 -5 48 -15 24z"/>
<path d="M2015 387 c-19 -46 -19 -53 0 -37 8 7 22 9 31 6 13 -5 15 -1 9 21
-11 46 -23 49 -40 10z m22 -9 c-3 -8 -6 -5 -6 6 -1 11 2 17 5 13 3 -3 4 -12 1
-19z"/>
<path d="M2081 383 c1 -25 3 -30 6 -15 4 19 7 21 19 11 17 -14 18 -5 4 22 -17
31 -30 22 -29 -18z"/>
<path d="M2127 388 c-3 -18 -1 -37 4 -42 5 -6 9 7 9 32 0 50 -6 54 -13 10z"/>
<path d="M2170 384 c-7 -19 -9 -38 -6 -41 3 -4 6 -1 6 5 0 7 9 12 20 12 11 0
20 -5 20 -12 0 -6 3 -9 6 -5 8 8 -15 77 -26 77 -5 0 -14 -16 -20 -36z m30 -4
c0 -5 -4 -10 -10 -10 -5 0 -10 5 -10 10 0 6 5 10 10 10 6 0 10 -4 10 -10z"/>
<path d="M2249 411 c12 -8 12 -13 -2 -34 -9 -14 -13 -27 -10 -31 10 -10 43 -7
43 4 0 6 -7 10 -16 10 -15 0 -15 2 0 25 21 32 20 35 -6 35 -18 0 -20 -2 -9 -9z"/>
<path d="M2301 383 c1 -33 2 -34 8 -13 6 23 7 24 15 5 7 -19 8 -19 21 -2 13
18 14 17 18 -10 3 -21 4 -17 6 15 1 45 -13 57 -25 20 l-7 -23 -10 23 c-15 33
-27 27 -26 -15z"/>
<path d="M2392 383 c2 -31 7 -39 26 -41 12 -2 22 1 22 7 0 6 -9 11 -20 11 -27
0 -25 18 3 23 l22 4 -22 2 c-13 0 -23 5 -23 10 0 5 10 12 23 14 18 4 17 4 -6
6 -27 1 -28 -1 -25 -36z"/>
<path d="M2461 378 c2 -31 3 -35 6 -15 4 23 7 26 19 16 18 -14 18 0 0 24 -20
27 -26 21 -25 -25z"/>
<path d="M2507 388 c-3 -18 -1 -37 4 -42 5 -6 9 7 9 32 0 50 -6 54 -13 10z"/>
<path d="M2547 412 c6 -4 13 -21 16 -37 l4 -30 2 32 c0 17 7 34 14 36 6 3 -1
6 -18 6 -16 0 -25 -3 -18 -7z"/>
<path d="M2600 391 c0 -16 7 -34 15 -41 22 -18 45 5 44 44 l-1 31 -7 -29 c-9
-41 -31 -46 -31 -7 0 17 -4 31 -10 31 -5 0 -10 -13 -10 -29z"/>
</g>
</svg>
